<svg id="Warstwa_1" data-name="Warstwa 1" xmlns="http://www.w3.org/2000/svg" viewBox="0 0 100 100"><defs><style>.cls-1,.cls-3{fill:#1d1d1b;}.cls-2{fill:#868686;}.cls-3{fill-rule:evenodd;}.cls-4{fill:none;}</style></defs><path class="cls-1" d="M21.54,79.82a2,2,0,0,1-1.24-.47,2,2,0,0,1-.69-1.61c0-1.09-5.7-42.69-8.71-64.54h0a2.84,2.84,0,0,1,0-1.22h0a1.69,1.69,0,0,1,1.52-1.27l75-6.84A1.65,1.65,0,0,1,89.1,5.06c.44,1.09,7.45,54.16,8.25,60.21,0,.23-.15,1.56-1,1.84-.75.23-52.94,9.57-74.56,12.7ZM11.61,12.15a2.14,2.14,0,0,0,0,.92c.36,2.62,8.72,63.31,8.72,64.67a1.34,1.34,0,0,0,.44,1.07,1.22,1.22,0,0,0,.88.3C43.05,76,95.18,66.67,96.09,66.43c.35-.11.53-.82.56-1.15C94,45.1,88.82,6.48,88.44,5.32c-.31-.77-.86-.75-.92-.74l-75,6.83a1,1,0,0,0-.89.74Z"/><path class="cls-1" d="M29.58,68.35a1.58,1.58,0,0,1-1-.39A1.6,1.6,0,0,1,28,66.71c0-.9-4.34-31.34-6.62-47.31a2.26,2.26,0,0,1,0-.95h0a1.36,1.36,0,0,1,1.24-1l57-6.05a1.35,1.35,0,0,1,1.35.94c.33.82,5.67,40.86,6.28,45.42,0,.2-.12,1.24-.86,1.47s-41.46,7-56.72,9.12ZM22.11,18.62a1.47,1.47,0,0,0,0,.64c.27,1.93,6.63,46.44,6.63,47.45a.89.89,0,0,0,.3.72.84.84,0,0,0,.61.21c15.89-2.25,55.66-8.86,56.62-9.1.2-.06.33-.54.35-.77-2-15.15-5.94-44.21-6.23-45.19-.21-.5-.58-.49-.62-.48l-57,6a.68.68,0,0,0-.61.48Z"/><path class="cls-1" d="M9.16,42.63,5.65,15a2.9,2.9,0,0,1,2-2.67c1.74-.64,4.11-1.43,4.13-1.44l.22.67s-2.38.8-4.11,1.43a2.2,2.2,0,0,0-1.52,2L9.87,42.54Z"/><rect class="cls-1" x="18" y="75.45" width="0.71" height="6.78" transform="translate(-62.51 82.5) rotate(-79.49)"/><polygon class="cls-1" points="9.4 52.79 9.65 52.54 9.4 52.79 9.28 52.63 9.92 52.32 9.4 52.79"/><path class="cls-1" d="M16.28,92.34l-.15-.18L4.29,78.65v-.12a12.17,12.17,0,0,1,0-1.47s.14-.83.67-1a.65.65,0,0,1,.7.26c.41.49,1.09,1.18,1.12,1.2h0a.58.58,0,0,0,.47.11c.18-.07.59-.42.77-2.12l.54-23.38a.6.6,0,0,1,.55-.57l.07.7a.12.12,0,0,0,.09-.09L8.73,75.58c-.17,1.58-.56,2.47-1.22,2.73a1.25,1.25,0,0,1-1.21-.25s-.74-.73-1.17-1.25a1.07,1.07,0,0,0-.14.36,9.16,9.16,0,0,0,0,1.2L16.81,91.86Z"/><path class="cls-1" d="M18.13,93.12a2.3,2.3,0,0,1-1.85-.79l-.19-.24a3,3,0,0,1-.48-1.33c-1-15-2.86-37.71-3.75-38.93l.56-.43c1.3,1.7,3.64,35.47,3.9,39.31a2.34,2.34,0,0,0,.38,1l.11.12a1.77,1.77,0,0,0,1.63.54c2.32-.25,72.28-13.46,73-13.59.1,0,1.13-.06,1.22-1.86a87,87,0,0,0-1-9.32l.7-.11a84.46,84.46,0,0,1,1,9.46c-.12,2.5-1.85,2.53-1.87,2.53-2.82.54-70.63,13.34-73,13.59Z"/><polygon class="cls-1" points="11.64 52.84 11.64 52.49 11.3 52.48 11.64 52.48 11.64 52.13 11.64 52.48 12.01 52.48 11.64 52.84"/><path class="cls-1" d="M8.9,50.79l-.12-.11a4.75,4.75,0,0,1-.86-4.78l0-.09.35-.49,1.89-.12.1.19c.07.13,1.7,3.1,0,5.18l-.1.13Zm-.32-4.61a4,4,0,0,0,.6,3.88L9.89,50c1-1.43.2-3.44-.1-4.08L8.7,46Z"/><path class="cls-1" d="M6.62,55.13a2.75,2.75,0,0,1-2-.9c-.74,0-1-.33-1.09-.49A9.6,9.6,0,0,1,1.71,49.1a14.21,14.21,0,0,1,.57-5.19,1.09,1.09,0,0,1,.78-.66,2.52,2.52,0,0,1,3.05-1.43.63.63,0,0,1,.37.11.89.89,0,0,1,.33.61,1.62,1.62,0,0,1,0,.33,1.84,1.84,0,0,0,1.25,1.94l.08,0a1.34,1.34,0,0,1,.36,1.51l-.67-.23a.66.66,0,0,0-.11-.7,2.51,2.51,0,0,1-1.61-2.55c0-.1,0-.18,0-.24a.39.39,0,0,0,0-.11H6c-1.94-.36-2.33,1-2.37,1.13l-.06.25-.27,0c-.28,0-.36.17-.37.2A13.36,13.36,0,0,0,2.41,49a8.94,8.94,0,0,0,1.72,4.3l.07.11a1.3,1.3,0,0,0,.61.1H5l.11.14a1.9,1.9,0,0,0,2.52.47,4.51,4.51,0,0,1,.83-3.61.47.47,0,0,0,.05-.24l.7-.11A1.14,1.14,0,0,1,9,51c-1.09,1.17-.65,3.23-.65,3.26l.06.23-.2.13A2.7,2.7,0,0,1,6.62,55.13Z"/><path class="cls-1" d="M10.67,53.38a1.83,1.83,0,0,1-1.26-.58,3.17,3.17,0,0,1-.56-.68A5.37,5.37,0,0,1,8.27,51l.66-.27a4.72,4.72,0,0,0,.51,1,3.08,3.08,0,0,0,.45.55,1.15,1.15,0,0,0,.85.39,1,1,0,0,0,.62-.4l.11-.14a2.79,2.79,0,0,0,.34-.65,8.37,8.37,0,0,0,.38-3.81,7,7,0,0,0-1.73-4.32.93.93,0,0,0-.72-.26c-.59.06-1.12.92-1.36,2.19l-.7-.12c.31-1.65,1.05-2.69,2-2.78a1.68,1.68,0,0,1,1.24.42c1,.81,1.76,2.65,2,4.8a9.1,9.1,0,0,1-.42,4.14,3.28,3.28,0,0,1-.5.9l-.07.2h-.09a1.62,1.62,0,0,1-1,.53Z"/><polygon class="cls-1" points="92.01 78.73 78.75 69.73 79.15 69.15 92.41 78.14 92.01 78.73"/><path d="M87.62,4.19c.15,0,.86.06,1.37,1.08s8,59.87,8,59.87.28,1.29-.65,1.79a18.39,18.39,0,0,1-4.27.75L93.29,77s-.11,2-1.26,2.15S18.66,92.85,18.66,92.85a1.09,1.09,0,0,1-.36.05c-.53,0-1.58-.26-2.73-2-1.65-2.48-11-12.45-11-12.45l-.11-1.39s.24-.53.69-.53a1.17,1.17,0,0,1,.85.53c.43.5.83.8,1.19.8s.87-.54,1.14-1.88c.47-2.33.54-21.59.54-21.59l-2.19.33s-1.54,0-1.83-.93a.56.56,0,0,1-.27.06c-.25,0-.62-.13-1-.75a11,11,0,0,1-1.11-8.57s.25-1,.75-1a1.75,1.75,0,0,1,1.88-1.43,3.7,3.7,0,0,1,.88.11S6.32,44.52,7.76,45c0,0,.64-2,1.65-2.4S6,15.16,6,15.16s0-1.58.86-2,4.63-1.8,4.63-1.8l76.1-7.13h0m0-1H87.5L11.39,10.33a1,1,0,0,0-.24.05c-.39.14-3.82,1.37-4.75,1.85C5,13,5,15,5,15.18c0,.05,0,.1,0,.14C6.88,26.74,8.69,39.57,8.56,42A4.31,4.31,0,0,0,7.4,43.34,4.38,4.38,0,0,1,7,42.05a1,1,0,0,0-.77-.84,5.4,5.4,0,0,0-1.1-.13,2.77,2.77,0,0,0-2.71,1.7,2.75,2.75,0,0,0-.88,1.5c-1.47,4.44.75,8.57,1.21,9.35a2.25,2.25,0,0,0,1.58,1.22,3.45,3.45,0,0,0,2.36.89h.15l1-.16c0,7.7-.2,18.67-.51,20.23a5,5,0,0,1-.27,1,3.15,3.15,0,0,1-.32-.32,2.09,2.09,0,0,0-1.61-.88,1.82,1.82,0,0,0-1.6,1.11,1,1,0,0,0-.09.49l.11,1.4a1,1,0,0,0,.27.61c.09.1,9.32,9.93,10.9,12.31,1.34,2,2.67,2.43,3.56,2.43a2.11,2.11,0,0,0,.6-.08c24.78-4.65,71.92-13.47,73.24-13.64s2.08-1.75,2.15-3.09a1.09,1.09,0,0,0,0-.18l-1.12-8.33a12.42,12.42,0,0,0,3.61-.77A2.58,2.58,0,0,0,97.93,65C95.7,47.24,90.47,6,89.88,4.82a2.57,2.57,0,0,0-2.26-1.63Z"/><path class="cls-2" d="M30.28,65.72,28.74,55.23l.25,0L83.79,47l1.38,10-.24,0Zm-1-10.07,1.39,9.5,53.91-8.54-1.25-9.06Z"/><path class="cls-3" d="M78.92,52l.56-.09,0,.21-.56.09,0-.21Zm.67.65-.57.09v.11l.57-.09v-.11Zm0-.21-.57.09v.11l.57-.09v-.11Zm.22-.14v.11l-.14,0,.06.42L79,53l0-.43-.14,0,0-.11,1-.16Zm-1.08.49.13,0,0,.32.95-.15,0-.32h.13a.1.1,0,0,0,.07-.1l0-.36a.08.08,0,0,0-.09-.07l-.22,0,0-.32-.75.12,0,.32-.22,0a.08.08,0,0,0-.06.1l.05.36a.07.07,0,0,0,.08.07Z"/><polygon class="cls-1" points="75.73 54.08 75.5 54.12 75.35 53.05 75.06 53.09 75.03 52.84 75.84 52.72 75.87 52.97 75.58 53.01 75.73 54.08 75.73 54.08"/><path class="cls-3" d="M74.39,53.21l.63.28-.53.46-.1-.74Zm2.16-.34-.53.47.63.27-.1-.74Z"/><path class="cls-1" d="M71.19,53.41h.13l.11.07a.53.53,0,0,1,.15.22,1.42,1.42,0,0,1,.08.34,1.23,1.23,0,0,1,0,.27.59.59,0,0,1,0,.23.42.42,0,0,1-.09.16.34.34,0,0,1-.17.08.35.35,0,0,1-.18,0,.44.44,0,0,1-.14-.13,1,1,0,0,1-.1-.21,1.07,1.07,0,0,1-.06-.27,1.4,1.4,0,0,1,0-.35.5.5,0,0,1,.09-.26.34.34,0,0,1,.08-.09.28.28,0,0,1,.13,0Zm0,.22a.09.09,0,0,0-.08,0,.35.35,0,0,0,0,.11.76.76,0,0,0,0,.15c0,.06,0,.12,0,.18a.8.8,0,0,0,0,.18.54.54,0,0,0,0,.15.35.35,0,0,0,.06.09.12.12,0,0,0,.16,0,.36.36,0,0,0,0-.11v-.15a1.37,1.37,0,0,0,0-.19l0-.17a1.55,1.55,0,0,0,0-.15.36.36,0,0,0-.07-.1.08.08,0,0,0-.08,0Z"/><path class="cls-3" d="M70.13,53.86l.64.29-.53.46-.11-.75Zm2.18-.34-.53.47.64.28-.11-.75Z"/><path class="cls-3" d="M34.33,59.05l0,.33-.2,0-.08-.55,1.1-.17.27,1.91-1.09.17-.08-.56.2,0,0,.33.69-.1L35,58.94l-.68.11Zm-.6,1,.37.25-.12.19L33.26,60l.55-.67.17.14-.29.35.76-.12,0,.23-.75.11Z"/><polygon class="cls-3" points="80.53 53.46 80.55 53.63 80.03 53.44 80.47 53.1 80.5 53.27 80.97 53.2 80.92 52.84 81.09 52.81 81.17 53.36 80.53 53.46 80.53 53.46"/><path class="cls-1" d="M38.23,60.42l-.14-.93-.51.08,1.29-1.81,1.75,1.34-.51.08.13.92Zm.31-1.33.11.75h.07l-.06-.38.9-.14.06.38h.06l-.11-.76L39,58.47Z"/><path class="cls-4" d="M44.48,59l.39-.06,0-.19c0-.16-.57-.33-.7-.34a1,1,0,0,0,.09-.31,1.33,1.33,0,0,0,0-.45c-.09-.18-.2-.23-.34-.2a.48.48,0,0,0-.24.11"/><path class="cls-3" d="M43.73,58.57a1,1,0,0,0,.11-.38,1.52,1.52,0,0,0-.06-.55.33.33,0,0,0-.4-.24.34.34,0,0,0-.32.35,1.85,1.85,0,0,0,.1.54,1,1,0,0,0,.21.34c-.15,0-.72.45-.69.64l0,.23,1.91-.29,0-.23c0-.2-.69-.4-.85-.41Z"/><path class="cls-1" d="M48.75,60.79a1.36,1.36,0,0,1-.79-.26,1.49,1.49,0,0,1-.58-1,1.44,1.44,0,0,1,1.14-1.67,1.29,1.29,0,0,1,1,.25,1.51,1.51,0,0,1,.59,1,1.44,1.44,0,0,1-1.14,1.67Zm0-2.45h-.12a.94.94,0,0,0-.72,1.1,1,1,0,0,0,.39.68.84.84,0,0,0,.61.15.94.94,0,0,0,.72-1.1,1,1,0,0,0-.39-.68A.82.82,0,0,0,48.71,58.34Zm3.71,1.88a1.3,1.3,0,0,1-.77-.26,1.53,1.53,0,0,1-.59-1,1.44,1.44,0,0,1,1.13-1.67,1.33,1.33,0,0,1,1,.25,1.53,1.53,0,0,1,.58,1,1.43,1.43,0,0,1-1.13,1.66Zm0-2.45h-.12a.94.94,0,0,0-.72,1.1,1,1,0,0,0,.39.67.78.78,0,0,0,.6.16,1,1,0,0,0,.72-1.1,1,1,0,0,0-.39-.68A.79.79,0,0,0,52.39,57.77Zm3.69,1.87a1.33,1.33,0,0,1-.77-.25,1.53,1.53,0,0,1-.59-1,1.43,1.43,0,0,1,1.13-1.66h0a1.23,1.23,0,0,1,1,.24,1.53,1.53,0,0,1,.59,1,1.44,1.44,0,0,1-1.13,1.66Zm-.15-2.43a1,1,0,0,0-.72,1.1,1,1,0,0,0,.39.67.76.76,0,0,0,.59.15A.94.94,0,0,0,56.91,58a1.07,1.07,0,0,0-.39-.68A.8.8,0,0,0,55.93,57.21Zm3.78,1.86a1.29,1.29,0,0,1-.77-.25,1.56,1.56,0,0,1-.58-1,1.42,1.42,0,0,1,1.12-1.65,1.23,1.23,0,0,1,1,.24,1.49,1.49,0,0,1,.58,1,1.43,1.43,0,0,1-1.12,1.66Zm0-2.43h-.11a.93.93,0,0,0-.71,1.09,1,1,0,0,0,.39.68.81.81,0,0,0,.58.15,1,1,0,0,0,.71-1.1,1,1,0,0,0-.39-.67A.81.81,0,0,0,59.67,56.64Zm3.65,1.87a1.25,1.25,0,0,1-.76-.26,1.48,1.48,0,0,1-.59-1,1.43,1.43,0,0,1,1.12-1.65h0a1.22,1.22,0,0,1,1,.24,1.51,1.51,0,0,1,.59,1,1.43,1.43,0,0,1-1.12,1.65Zm0-2.43h-.11a.93.93,0,0,0-.7,1.09,1,1,0,0,0,.38.67.78.78,0,0,0,.58.15.93.93,0,0,0,.7-1.09,1,1,0,0,0-.38-.67A.83.83,0,0,0,63.28,56.08ZM66.9,58a1.24,1.24,0,0,1-.75-.26,1.46,1.46,0,0,1-.58-1A1.41,1.41,0,0,1,66.68,55h0a1.24,1.24,0,0,1,.94.24,1.51,1.51,0,0,1,.59,1,1.43,1.43,0,0,1-1.12,1.65Zm0-2.42h-.11a.92.92,0,0,0-.7,1.08,1,1,0,0,0,.38.67.78.78,0,0,0,.58.15.93.93,0,0,0,.69-1.09,1.06,1.06,0,0,0-.38-.67A.79.79,0,0,0,66.87,55.53ZM48.26,57.39a1.3,1.3,0,0,1-.79-.27,1.54,1.54,0,0,1-.59-1A1.46,1.46,0,0,1,48,54.44h0a1.3,1.3,0,0,1,1,.25,1.55,1.55,0,0,1,.59,1,1.43,1.43,0,0,1-1.14,1.67Zm0-2.46H48.1a.94.94,0,0,0-.72,1.1,1,1,0,0,0,.39.68.85.85,0,0,0,.61.16,1,1,0,0,0,.72-1.11,1.05,1.05,0,0,0-.39-.68A.89.89,0,0,0,48.22,54.93Zm3.72,1.89a1.31,1.31,0,0,1-.78-.26,1.53,1.53,0,0,1-.59-1,1.44,1.44,0,0,1,1.14-1.67,1.32,1.32,0,0,1,1,.25,1.57,1.57,0,0,1,.59,1,1.45,1.45,0,0,1-1.14,1.67Zm0-2.45h-.12a.93.93,0,0,0-.71,1.1,1.05,1.05,0,0,0,.39.68.79.79,0,0,0,.6.15.93.93,0,0,0,.71-1.1,1.05,1.05,0,0,0-.39-.68A.84.84,0,0,0,51.9,54.37Zm3.7,1.89a1.31,1.31,0,0,1-.78-.26,1.52,1.52,0,0,1-.58-1,1.43,1.43,0,0,1,1.13-1.66,1.29,1.29,0,0,1,1,.25,1.51,1.51,0,0,1,.59,1,1.44,1.44,0,0,1-1.13,1.66Zm-.05-2.45h-.11a.93.93,0,0,0-.71,1.1,1.05,1.05,0,0,0,.39.68.79.79,0,0,0,.59.15.93.93,0,0,0,.71-1.1A1,1,0,0,0,56,54,.78.78,0,0,0,55.55,53.81Zm3.68,1.89a1.3,1.3,0,0,1-.77-.26,1.49,1.49,0,0,1-.58-1A1.42,1.42,0,0,1,59,52.78,1.23,1.23,0,0,1,60,53a1.52,1.52,0,0,1,.58,1,1.42,1.42,0,0,1-1.12,1.65Zm0-2.44h-.11a.92.92,0,0,0-.71,1.09,1,1,0,0,0,.39.68.77.77,0,0,0,.58.15.93.93,0,0,0,.71-1.09,1.05,1.05,0,0,0-.39-.68A.83.83,0,0,0,59.19,53.26Zm3.65,1.88a1.33,1.33,0,0,1-.76-.25,1.52,1.52,0,0,1-.58-1,1.41,1.41,0,0,1,1.12-1.65h0a1.3,1.3,0,0,1,1,.24,1.56,1.56,0,0,1,.58,1A1.43,1.43,0,0,1,63,55.13Zm-.15-2.42a.93.93,0,0,0-.7,1.09,1,1,0,0,0,.39.67.72.72,0,0,0,.58.15.92.92,0,0,0,.7-1.08,1,1,0,0,0-.39-.67A.82.82,0,0,0,62.69,52.72Zm3.74,1.87a1.27,1.27,0,0,1-.76-.26,1.51,1.51,0,0,1-.58-1,1.43,1.43,0,0,1,1.12-1.65h0a1.24,1.24,0,0,1,.94.25,1.49,1.49,0,0,1,.58,1,1.42,1.42,0,0,1-1.11,1.65Zm-.15-2.41a.91.91,0,0,0-.69,1.08,1,1,0,0,0,.38.67.71.71,0,0,0,.57.15.92.92,0,0,0,.7-1.08,1,1,0,0,0-.39-.67.74.74,0,0,0-.57-.15Z"/><polygon class="cls-3" points="80.72 51.83 80.81 51.91 79.56 53.81 79.47 53.73 80.72 51.83 80.72 51.83"/><path class="cls-1" d="M28.79,67.93,21.48,18.32l59-7,0,.25L87,58.6l-.24,0ZM22.05,18.75l7.16,48.6,57.27-9.17-6.39-46.3Zm8.23,47,0-.25L23.57,20.05l.26,0,55.31-6.64,0,.24,6,43.4-.24,0ZM24.14,20.49,30.7,65.15l53.91-8.54L78.72,13.93Z"/></svg>