<svg id="Warstwa_1" data-name="Warstwa 1" xmlns="http://www.w3.org/2000/svg" viewBox="0 0 100 100"><defs><style>.cls-1,.cls-4{fill:#1d1d1b;}.cls-2{fill:none;}.cls-3,.cls-4,.cls-6{fill-rule:evenodd;}.cls-5{fill:#c6c6c5;}.cls-6{fill:#fff;}</style></defs><path class="cls-1" d="M58.85,10.65a1.78,1.78,0,0,1,1.08.26C61.05,12,92.24,41.7,97.11,46.34a2.38,2.38,0,0,1,.73,1.48l.2,2.06a3.69,3.69,0,0,1-.28,1.74l-.39.9a2.38,2.38,0,0,1-1,1.1L40.5,86.36a.89.89,0,0,1-.39.08,1.24,1.24,0,0,1-.78-.29L35,83.31a2.51,2.51,0,0,1-.66-.64l-1.69-2.44a2.43,2.43,0,0,0-.74-.69L10.51,66.86,8.42,65.59,6,64.18,4.67,62.06a2.36,2.36,0,0,1-.24-.9L3.84,50.88A2.36,2.36,0,0,0,3,49.2l-.59-.51a2.36,2.36,0,0,1-.85-1.92l.14-3s.2-.85.66-1.06,56.23-32,56.23-32h.26m0-.56h-.43l-.11.06c-.55.32-55.32,31.57-56.2,32a2.27,2.27,0,0,0-1,1.44v.11l-.14,3a3,3,0,0,0,1,2.37l.6.51a1.81,1.81,0,0,1,.64,1.28l.59,10.28a2.9,2.9,0,0,0,.29,1.12v0l0,0,1.36,2.11.07.11.12.07,2.39,1.42,2.1,1.26L31.61,80a1.7,1.7,0,0,1,.57.53L33.87,83a2.9,2.9,0,0,0,.81.79L39,86.62a1.71,1.71,0,0,0,1.08.38,1.54,1.54,0,0,0,.63-.13L96.67,54.1a2.86,2.86,0,0,0,1.21-1.36l.39-.89a4.13,4.13,0,0,0,.33-2l-.21-2.07a2.9,2.9,0,0,0-.89-1.83c-6-5.72-36.08-34.33-37.17-35.42a2.08,2.08,0,0,0-1.48-.42Z"/><path class="cls-2" d="M3.94,50,1.7,47.79s.08-3.33.1-3.7.1-1,.48-1.18L58.6,10.77a.81.81,0,0,1,1,.08c.49.45,37.75,35.82,37.75,35.82a1.62,1.62,0,0,1,.43.92c0,.51.16,2.83.16,2.83a3.09,3.09,0,0,1-.21.92c-.16.36-.91,2-.91,2L40.76,86.07a1.17,1.17,0,0,1-1.37,0l-4.83-2.91-2.08-3.44L6,64.18,4.53,61.77Z"/><path d="M40.15,86.53a1.43,1.43,0,0,1-.75-.22l-5-3a.2.2,0,0,1-.08-.08l-5.64-9.31L1.53,48a.23.23,0,0,1-.07-.18l.11-4.14h0a.94.94,0,0,1,.54-.9c.47-.3,54.24-31,56.53-32.28a.92.92,0,0,1,1.06.17l38,36a1.27,1.27,0,0,1,.36.87c0,.24.06,1.09.1,1.84s.07,1.16.07,1.25a1.78,1.78,0,0,1-.16.69c0,.08-1,2.16-1,2.16a.31.31,0,0,1-.09.11L40.68,86.41A1.26,1.26,0,0,1,40.15,86.53Zm-5.41-3.59c.48.3,4.36,2.63,4.91,3a.8.8,0,0,0,.79.09L96.63,53.16c.16-.36.92-2,1-2.08a1.47,1.47,0,0,0,.13-.49c0-.09,0-.63-.07-1.24s-.1-1.6-.1-1.85a.93.93,0,0,0-.22-.54L59.37,11a.42.42,0,0,0-.49-.09c-.56.32-56,32-56.52,32.26a.54.54,0,0,0-.32.47l-.1,4.08L29.08,73.61l0,0Z"/><path d="M32.54,80a.19.19,0,0,1-.12,0L5.9,64.38a.2.2,0,0,1-.08-.08L4.33,61.9a.15.15,0,0,1,0-.11l-.6-11.85a.25.25,0,0,1,.23-.25h0a.24.24,0,0,1,.24.23L4.76,61.7,6.2,64,32.66,79.57a.26.26,0,0,1,.09.33A.27.27,0,0,1,32.54,80Z"/><path d="M41,80.34a.23.23,0,0,1-.16-.06l-39-36.95a.24.24,0,0,1,0-.33.24.24,0,0,1,.34,0L41,79.81,97.47,46.86a.24.24,0,0,1,.33.08.24.24,0,0,1-.09.33l-56.64,33A.27.27,0,0,1,41,80.34Z"/><path d="M40.07,86.53H40a.25.25,0,0,1-.15-.31l.84-2.37,0-3.74a.23.23,0,0,1,.24-.23h0a.24.24,0,0,1,.24.24l0,3.78a.31.31,0,0,1,0,.08l-.85,2.4A.23.23,0,0,1,40.07,86.53Z"/><path d="M45.89,66.12a.27.27,0,0,1-.17-.06L22.59,44.14a.27.27,0,0,1-.07-.21.25.25,0,0,1,.12-.18L54.87,25.06a.26.26,0,0,1,.29,0L78.27,47.15a.21.21,0,0,1,.07.2.23.23,0,0,1-.11.18L46,66.09A.2.2,0,0,1,45.89,66.12ZM23.15,44,45.92,65.59,77.71,47.27,55,25.56Z"/><path d="M12.35,66.11a.27.27,0,0,1-.12,0L9.48,64.47a.23.23,0,0,1-.11-.2L9.28,59a.27.27,0,0,1,.12-.21.25.25,0,0,1,.24,0l2.74,1.61a.24.24,0,0,1,.12.2l.09,5.28a.22.22,0,0,1-.12.21A.24.24,0,0,1,12.35,66.11Zm-2.51-2,2.27,1.32L12,60.73,9.77,59.41Z"/><path d="M17.29,66.09a.23.23,0,0,1,.19.18c0,.1,0,.19-.06.19a.24.24,0,0,1-.19-.18C17.19,66.17,17.22,66.09,17.29,66.09Z"/><path d="M17.93,66.46c.07,0,.15.08.19.18s0,.18-.07.19-.15-.08-.18-.19S17.86,66.46,17.93,66.46Z"/><path d="M18.58,66.83a.24.24,0,0,1,.19.18c0,.11,0,.19-.07.19s-.15-.08-.19-.18S18.51,66.83,18.58,66.83Z"/><path d="M19.22,67.2c.07,0,.15.08.19.18s0,.2-.06.2-.16-.09-.19-.19S19.14,67.2,19.22,67.2Z"/><path d="M19.84,67.58a.23.23,0,0,1,.19.18c0,.1,0,.19-.06.19s-.16-.09-.19-.18S19.77,67.58,19.84,67.58Z"/><path d="M17.28,67.34c.07,0,.16.09.2.18s0,.19-.07.19-.16-.07-.19-.17S17.21,67.34,17.28,67.34Z"/><path d="M17.92,67.71a.24.24,0,0,1,.19.18c0,.11,0,.19-.06.2s-.16-.08-.2-.19S17.85,67.71,17.92,67.71Z"/><path d="M18.57,68.09c.07,0,.15.08.19.19s0,.18-.06.19-.16-.09-.19-.19S18.5,68.09,18.57,68.09Z"/><path d="M19.21,68.46c.07,0,.15.09.19.19s0,.18-.06.18-.17-.08-.2-.18S19.14,68.46,19.21,68.46Z"/><path d="M19.83,68.83A.24.24,0,0,1,20,69c0,.11,0,.2-.06.2a.24.24,0,0,1-.19-.19C19.73,68.92,19.76,68.83,19.83,68.83Z"/><path d="M17.61,66.91c.06,0,.15.07.19.18s0,.18-.06.18-.16-.08-.2-.18S17.53,66.91,17.61,66.91Z"/><path d="M18.24,67.27c.07,0,.16.08.2.19s0,.19-.07.19a.24.24,0,0,1-.19-.19C18.14,67.36,18.17,67.27,18.24,67.27Z"/><path d="M18.89,67.65a.27.27,0,0,1,.2.18c0,.11,0,.19-.07.19a.26.26,0,0,1-.19-.18C18.8,67.74,18.83,67.65,18.89,67.65Z"/><path d="M19.53,68c.07,0,.15.08.19.19s0,.18-.06.18-.15-.08-.19-.18S19.46,68,19.53,68Z"/><path d="M20.15,68.39c.08,0,.16.08.19.19s0,.19-.06.19-.15-.09-.19-.19S20.08,68.4,20.15,68.39Z"/><path d="M16.8,65.28l4,2.36a.62.62,0,0,1,.27.58l-.23,1.71s-.06.24-.34.08l-3.54-2.07a.76.76,0,0,1-.27-.49c0-.32-.2-2-.2-2S16.46,65.08,16.8,65.28Z"/><path d="M21.82,72.31a.51.51,0,0,1-.28-.1L16.08,69a1,1,0,0,1-.46-.81l0-1.26-.37-.21a2.26,2.26,0,0,1-1-1.69.75.75,0,0,1,.26-.65,1,1,0,0,1,.79-.13l.06,0,.22.12c0-.31,0-.72,0-.94a.43.43,0,0,1,.19-.43.49.49,0,0,1,.46,0l4.68,2.69-.24.41L16,63.51c0,.47,0,1.33,0,1.33l0,.43-.93-.54a.46.46,0,0,0-.34,0,.31.31,0,0,0-.08.27,1.8,1.8,0,0,0,.77,1.29l.6.34,0,1.53a.6.6,0,0,0,.22.41l5.42,3.16c0-.45,0-1.37,0-1.37V70l.37.21s.14.08.48.28a.63.63,0,0,0,.54.06s.11-.06.1-.25v-.2c0-.47,0-.66-.72-1s-.69-.37-.69-.37l-.1-.07v-.12l0-1.43h.48l0,1.29.55.28c.93.49,1,.88,1,1.47v.19a.71.71,0,0,1-.34.67,1.08,1.08,0,0,1-1-.06l-.11-.06c0,.3,0,.69,0,.94a.49.49,0,0,1-.21.5A.31.31,0,0,1,21.82,72.31Z"/><path d="M78.08,47.3a.13.13,0,0,1-.12-.08A.15.15,0,0,1,78,47l7.82-4.32a.13.13,0,0,1,.19,0A.14.14,0,0,1,86,43l-7.82,4.33Zm-3-2.8a.12.12,0,0,1-.12-.07.13.13,0,0,1,0-.19l7.82-4.32a.14.14,0,0,1,.14.24L75.2,44.49Zm-2.17-2a.14.14,0,0,1-.07-.26l7.82-4.32a.15.15,0,0,1,.19.05.14.14,0,0,1-.06.19L73,42.44Zm-3-2.79a.13.13,0,0,1-.12-.07.14.14,0,0,1,.06-.19l7.82-4.32a.15.15,0,0,1,.19.05.14.14,0,0,1-.06.19l-7.82,4.33Zm-2.17-2a.15.15,0,0,1-.12-.07.14.14,0,0,1,.05-.19L75.58,33a.15.15,0,0,1,.19.06.13.13,0,0,1,0,.19L67.9,37.59A.08.08,0,0,1,67.83,37.61Zm-3-2.78a.16.16,0,0,1-.13-.08.15.15,0,0,1,.06-.19l7.82-4.32a.15.15,0,0,1,.19.06.14.14,0,0,1-.06.19l-7.82,4.32Zm-2.18-2a.17.17,0,0,1-.12-.07.15.15,0,0,1,.06-.2l7.82-4.32a.14.14,0,0,1,.19.06.14.14,0,0,1-.06.19l-7.82,4.32ZM59.76,30a.17.17,0,0,1-.13-.07.14.14,0,0,1,.06-.19L67.5,25.4a.14.14,0,0,1,.19.06.13.13,0,0,1,0,.19L59.82,30Z"/><path class="cls-3" d="M65.35,28.06a1.16,1.16,0,0,1,1,.26c.33.29.33.7,0,.89A1.11,1.11,0,0,1,65.15,29c-.27-.25-.32-.56-.13-.77l.15.13h0l0,0v0l0,.05v.19l0,0,0,.05,0,0,0,.05,0,0,.06,0,.05,0,0,0,.06,0,.06,0,.06,0,.06,0h.37l0,0,0,0,0,0,.05,0,0,0,0,0,0,0,0,0v-.23l0-.05,0-.05,0,0,0-.05,0,0,0-.05,0,0-.06,0-.05,0-.06,0-.05,0-.07,0h-.38l-.16-.14ZM64.86,28l.14-.09,1,.86-.15.08-1-.85Z"/><path d="M76.75,38.64l-.7-.62-.21.12L75.7,38l.56-.33.14.13-.21.12.7.63-.14.08ZM77,37.52l-.18.47.66,0-.16-.16.24-.14-.14-.12-.25.14L77,37.52Zm-1.67,1,.68,0-.19.47-.17-.16-.25.15-.14-.13.25-.14-.18-.15Z"/><path d="M71.8,32.71l-.19.47.67,0L72.11,33l.25-.15-.14-.13-.25.15-.17-.15Zm-1.67,1,.67,0-.19.47L70.44,34l-.24.15L70.06,34l.24-.15-.17-.15Zm.65-.66a.39.39,0,0,1,.28,0,1.07,1.07,0,0,1,.43.26.7.7,0,0,1,.26.36.17.17,0,0,1-.11.19.42.42,0,0,1-.3,0,1.17,1.17,0,0,1-.41-.26.72.72,0,0,1-.26-.36.18.18,0,0,1,.11-.19Zm.13.12a.05.05,0,0,0,0,.05.16.16,0,0,0,0,.08,1.54,1.54,0,0,0,.19.2,1.3,1.3,0,0,0,.22.17.28.28,0,0,0,.12.05.1.1,0,0,0,.07,0,0,0,0,0,0,0,0s0,0,0-.08a1.09,1.09,0,0,0-.19-.19,1.14,1.14,0,0,0-.22-.18.24.24,0,0,0-.12,0,.09.09,0,0,0-.07,0Z"/><polygon points="80.57 42.35 80.32 42.96 81.18 42.9 80.97 42.71 81.97 42.13 81.79 41.97 81.79 41.97 81.37 41.59 81.18 41.7 81.6 42.08 80.79 42.55 80.57 42.35 80.57 42.35"/><path class="cls-3" d="M82.07,44.39l.35-.2a1,1,0,0,1-.62-.26.46.46,0,0,1,0-.79,1,1,0,0,1,1.07.15.56.56,0,0,1,.21.5l.35-.21.12.11-.69.4-.7.41-.11-.11Zm-.14-1.15a.79.79,0,0,1,.84.12c.23.21.23.49,0,.63a.78.78,0,0,1-.84-.13.36.36,0,0,1,0-.62Zm.14.13a.49.49,0,0,1,.56.08c.15.14.15.32,0,.41a.52.52,0,0,1-.57-.07c-.15-.15-.15-.33,0-.42Zm.07.06a.39.39,0,0,1,.41.07.17.17,0,0,1,0,.3.39.39,0,0,1-.41-.06.19.19,0,0,1,0-.31Zm.14.13a.12.12,0,0,1,.14,0,.07.07,0,0,1,0,.11.15.15,0,0,1-.14,0s0-.08,0-.1Z"/><path class="cls-4" d="M8.24,43.54l.48.42L9,43.81a.52.52,0,0,0,.37,0l.81-.48a.06.06,0,0,0,0-.1h0a.11.11,0,0,0-.13,0l-.29.17s-.11,0-.06-.06l.47-.27a.07.07,0,0,0,0-.1h0a.18.18,0,0,0-.14,0l-.47.28s-.1,0-.06-.05L10,42.8a.07.07,0,0,0,0-.1h0a.11.11,0,0,0-.14,0L9.34,43s-.1,0-.06-.05l.45-.27s0-.06,0-.1h0a.12.12,0,0,0-.14,0l-.45.26-.21.12L8.79,43l-.06,0h0a.07.07,0,0,1-.06,0h0s0,0,0-.05L9,42.8a.06.06,0,0,0,0-.1H9a.13.13,0,0,0-.14,0l-.39.23c-.15.09-.13.32,0,.5l-.21.13Z"/><path class="cls-5" d="M8.72,44h0l-.48-.43h0l.2-.12c-.09-.19-.1-.42.05-.5l.39-.24a.15.15,0,0,1,.14,0,.09.09,0,0,1,0,.07s0,0,0,0L8.67,43l0,0v0a.07.07,0,0,0,.06,0l.42-.25.45-.26a.12.12,0,0,1,.14,0,.09.09,0,0,1,0,.07.05.05,0,0,1,0,0l-.45.26s0,0,0,0l0,0h.05l.54-.32a.15.15,0,0,1,.14,0,.11.11,0,0,1,0,.07s0,0,0,.05l-.54.31a0,0,0,0,0,0,0,.07.07,0,0,0,.07,0l.47-.28a.14.14,0,0,1,.14,0,.11.11,0,0,1,0,.07s0,0,0,0l-.47.28a0,0,0,0,0,0,0s0,0,0,0h0l.29-.17a.11.11,0,0,1,.14,0,.06.06,0,0,1,0,.06.07.07,0,0,1,0,.05l-.81.47a.48.48,0,0,1-.37,0Zm-.47-.43.47.41L9,43.8a.47.47,0,0,0,.37,0l.82-.47a.08.08,0,0,0,0,0,0,0,0,0,0,0,0,.09.09,0,0,0-.13,0l-.29.17a.07.07,0,0,1-.06,0,.05.05,0,0,1,0,0s0,0,0,0l.46-.28s0,0,0,0a.09.09,0,0,0,0-.06.12.12,0,0,0-.13,0l-.46.28a.08.08,0,0,1-.09,0s0,0,0,0L10,42.8a.05.05,0,0,0,0,0,.09.09,0,0,0,0-.06.12.12,0,0,0-.13,0L9.34,43H9.28l0,0,0,0,.44-.26s0,0,0,0a.09.09,0,0,0,0-.05.13.13,0,0,0-.13,0l-.86.51a.06.06,0,0,1-.07,0s0,0,0,0,0,0,0,0L9,42.79l0,0a.09.09,0,0,0,0-.06.11.11,0,0,0-.13,0l-.39.23c-.14.08-.12.31,0,.49h0Z"/><path class="cls-4" d="M10.1,44a1,1,0,0,1,1.07.15l2.92,2.62c.29.26.29.62,0,.79A1,1,0,0,1,13,47.39l-2.92-2.61c-.29-.26-.29-.62,0-.79Z"/><path class="cls-1" d="M13.69,47.69a1.1,1.1,0,0,1-.71-.27l-2.92-2.61a.65.65,0,0,1-.23-.5.47.47,0,0,1,.25-.35h0a1,1,0,0,1,1.12.15l2.91,2.62a.6.6,0,0,1,.24.5.49.49,0,0,1-.25.35A.81.81,0,0,1,13.69,47.69Zm-3.2-3.76a.75.75,0,0,0-.37.09h0a.42.42,0,0,0-.21.3.56.56,0,0,0,.2.43L13,47.36a.93.93,0,0,0,1,.16.42.42,0,0,0,.21-.3.51.51,0,0,0-.21-.43l-2.91-2.62A1,1,0,0,0,10.49,43.93Z"/><path class="cls-6" d="M10.1,44a1,1,0,0,1,1.07.15c.3.27.29.62,0,.79a1,1,0,0,1-1.07-.15c-.29-.26-.29-.62,0-.79Z"/><path class="cls-1" d="M10.77,45.07a1.09,1.09,0,0,1-.71-.26.65.65,0,0,1-.23-.5.47.47,0,0,1,.25-.35h0a1,1,0,0,1,1.12.15.63.63,0,0,1,.23.51.49.49,0,0,1-.25.35A.8.8,0,0,1,10.77,45.07Zm-.28-1.14a.75.75,0,0,0-.37.09h0a.42.42,0,0,0-.21.3.56.56,0,0,0,.2.43,1,1,0,0,0,1,.15.41.41,0,0,0,.21-.29.56.56,0,0,0-.2-.44A1,1,0,0,0,10.49,43.93Z"/><path class="cls-6" d="M13,46.6a1,1,0,0,1,1.07.16c.29.26.29.62,0,.79A1,1,0,0,1,13,47.39a.46.46,0,0,1,0-.79Z"/><path class="cls-1" d="M13.69,47.69a1.1,1.1,0,0,1-.71-.27.59.59,0,0,1-.23-.49.46.46,0,0,1,.25-.36,1,1,0,0,1,1.11.16.6.6,0,0,1,.24.5.49.49,0,0,1-.25.35A.81.81,0,0,1,13.69,47.69Zm-.28-1.15a.69.69,0,0,0-.37.1h0a.38.38,0,0,0-.21.29.54.54,0,0,0,.2.43.93.93,0,0,0,1,.16.42.42,0,0,0,.21-.3.51.51,0,0,0-.21-.43A1,1,0,0,0,13.41,46.54Z"/><path class="cls-6" d="M12.34,46.17a.11.11,0,0,1,0-.18.2.2,0,0,1,.23,0l.27-.16h0l.07,0,.1.08-.92.55-.1-.1.35-.19ZM12.05,46a.23.23,0,0,1,.12-.16.47.47,0,0,1,.24-.05l0-.08a.65.65,0,0,0-.29.06A.34.34,0,0,0,12,46l.1,0Zm-.33-.1a.39.39,0,0,1,.21-.27.8.8,0,0,1,.41-.1l0-.08a1,1,0,0,0-.46.11.52.52,0,0,0-.24.3l.1,0Zm-.34-.1a.65.65,0,0,1,.31-.39,1,1,0,0,1,.58-.13l0-.09a1.31,1.31,0,0,0-.63.16.69.69,0,0,0-.34.42l.1,0Z"/><path class="cls-4" d="M56.59,16.88l.47.43.26-.15a.69.69,0,0,0,.38,0l.81-.48s0-.07,0-.11h0a.13.13,0,0,0-.13,0l-.29.18s-.1,0-.07-.06l.47-.28s0-.06,0-.1h0a.13.13,0,0,0-.13,0l-.47.28s-.11,0-.07-.06l.54-.32s0-.06,0-.1h0a.14.14,0,0,0-.14,0l-.54.32s-.1,0-.06-.06l.44-.26a.06.06,0,0,0,0-.1h0a.13.13,0,0,0-.13,0l-.45.26-.21.13-.15.08-.06,0h0a.06.06,0,0,1-.06,0h0s0,0,0,0l.35-.21s0-.06,0-.1h0a.12.12,0,0,0-.13,0l-.39.23c-.15.09-.13.32,0,.51l-.21.12Z"/><path class="cls-5" d="M57.06,17.31h0l-.48-.43.21-.12c-.09-.19-.11-.43,0-.51l.4-.23a.11.11,0,0,1,.14,0,.09.09,0,0,1,0,.06.1.1,0,0,1,0,0l-.35.2s0,0,0,0a0,0,0,0,0,0,0h.06l.06,0,.15-.09.21-.13.45-.26a.15.15,0,0,1,.14,0,.11.11,0,0,1,0,.07s0,0,0,.05l-.45.26h0l0,0a0,0,0,0,0,0,0l.54-.31a.12.12,0,0,1,.14,0,.09.09,0,0,1,0,.06.05.05,0,0,1,0,0l-.54.31a0,0,0,0,0,0,0,.06.06,0,0,0,.07,0l.46-.27a.12.12,0,0,1,.15,0,.09.09,0,0,1,0,.06l0,.05-.47.27s0,0,0,0a.06.06,0,0,0,.07,0l.29-.17a.12.12,0,0,1,.14,0s0,0,0,.06a.05.05,0,0,1,0,0l-.8.48a.58.58,0,0,1-.39,0Zm-.46-.43.47.42.25-.15a.55.55,0,0,0,.38,0l.81-.48a.05.05,0,0,0,0,0s0,0,0-.05a.13.13,0,0,0-.13,0l-.29.17s-.06,0-.08,0a0,0,0,0,1,0,0l.47-.27a.05.05,0,0,0,0,0,0,0,0,0,0,0-.05.13.13,0,0,0-.13,0l-.47.27s-.06,0-.08,0,0,0,0-.05l.54-.31s0,0,0,0a.05.05,0,0,0,0-.05.13.13,0,0,0-.13,0l-.54.31a0,0,0,0,1,0,0s0,0,0,0a0,0,0,0,1,0,0l.44-.27,0,0a.09.09,0,0,0,0-.06.15.15,0,0,0-.13,0l-.44.26-.22.13-.2.12h0a.07.07,0,0,1-.07,0,0,0,0,0,1,0,0s0,0,0,0l.35-.2,0,0s0,0,0-.05a.12.12,0,0,0-.13,0l-.39.23c-.14.08-.13.31,0,.5h0Z"/><path class="cls-4" d="M58.45,17.33a1,1,0,0,1,1.07.16l2.92,2.61a.47.47,0,0,1,0,.8,1,1,0,0,1-1.08-.16l-2.91-2.61a.47.47,0,0,1,0-.8Z"/><path class="cls-1" d="M62,21a1.1,1.1,0,0,1-.71-.27l-2.92-2.61a.65.65,0,0,1-.23-.5.49.49,0,0,1,.25-.36h0a1,1,0,0,1,1.12.16l2.92,2.61a.61.61,0,0,1,.22.5.45.45,0,0,1-.24.36A.81.81,0,0,1,62,21Zm-3.57-3.67h0a.4.4,0,0,0-.21.3.56.56,0,0,0,.2.43l2.92,2.61a1,1,0,0,0,1,.16.4.4,0,0,0,.2-.31.5.5,0,0,0-.2-.43L59.5,17.52a1,1,0,0,0-1-.15Z"/><path class="cls-6" d="M58.45,17.33a1,1,0,0,1,1.07.16c.29.26.29.61,0,.79a1,1,0,0,1-1.07-.15.47.47,0,0,1,0-.8Z"/><path class="cls-1" d="M59.12,18.42a1.11,1.11,0,0,1-.71-.26.65.65,0,0,1-.23-.5.49.49,0,0,1,.25-.36h0a1,1,0,0,1,1.12.16.61.61,0,0,1,.22.5.47.47,0,0,1-.24.36A.8.8,0,0,1,59.12,18.42Zm-.65-1.05a.4.4,0,0,0-.21.3.56.56,0,0,0,.2.43,1,1,0,0,0,1,.15.39.39,0,0,0,.2-.3.51.51,0,0,0-.19-.43,1,1,0,0,0-1-.15Z"/><path class="cls-6" d="M61.36,20a1,1,0,0,1,1.08.15.47.47,0,0,1,0,.8,1,1,0,0,1-1.08-.16c-.29-.26-.29-.62,0-.79Z"/><path class="cls-1" d="M62,21a1.1,1.1,0,0,1-.71-.27.62.62,0,0,1-.23-.5.47.47,0,0,1,.24-.36h0a1.05,1.05,0,0,1,1.13.16.61.61,0,0,1,.22.5.45.45,0,0,1-.24.36A.81.81,0,0,1,62,21Zm-.29-1.15a.78.78,0,0,0-.37.09h0a.39.39,0,0,0-.2.3.54.54,0,0,0,.2.43,1,1,0,0,0,1,.16.4.4,0,0,0,.2-.31.5.5,0,0,0-.2-.43A1,1,0,0,0,61.75,19.89Z"/><path class="cls-6" d="M60.69,19.51c-.07-.06-.07-.13,0-.17a.2.2,0,0,1,.23,0l.27-.16h0l.07,0,.1.09-.92.54-.1-.09.35-.2Zm-.29-.16a.25.25,0,0,1,.12-.17.47.47,0,0,1,.24,0l0-.08a.46.46,0,0,0-.29.06.27.27,0,0,0-.15.19l.1,0Zm-.34-.11a.47.47,0,0,1,.22-.27.8.8,0,0,1,.41-.1l0-.07a.79.79,0,0,0-.46.11.44.44,0,0,0-.24.3l.09,0Zm-.33-.1a.6.6,0,0,1,.31-.38,1.13,1.13,0,0,1,.58-.14l0-.08a1.2,1.2,0,0,0-.63.15.77.77,0,0,0-.34.41l.1,0Z"/><path class="cls-4" d="M18.27,39.08l.26.24.36-.21,1.86,2.83-.45.26.27.25,2.76-1.62-.27-.25-.47.27L19.17,39,22.42,37l1.86,2.83-.47.26.28.25,2.76-1.62-.27-.25-.46.27-3.42-1.9.36-.21-.27-.25-4.52,2.66ZM19,39l1.86,2.83,1.57-.93L19,39ZM22.55,37,26,38.86l-1.58.93L22.55,37Zm-3.67,3.81.09-.06a.15.15,0,0,1,.19,0c.05,0,.11.1,0,.15l-.09.06-.21-.19Zm-.46-.08,1,.92.23-.13-.38-.34,0,0,.12,0c.09,0,.35.29.43.28l.23-.14,0,0a.24.24,0,0,1-.13-.08l-.08-.07a.48.48,0,0,0-.41-.16c.07,0,0-.18-.12-.31a.49.49,0,0,0-.6-.1l-.33.2Zm4.9-2.88.74,1.1.22-.14-.14-.2.26-.16.24.15.24-.13-1.34-.76-.22.14Zm.65.54L23.7,38l.44.28-.17.09ZM19.8,39.87,20.53,41l.24-.14-.16-.2.27-.16.24.16.24-.14L20,39.75l-.23.12Zm.65.56-.27-.37.44.27-.17.1Zm.35-1.13,1,.92.31-.18c.22-.13.23-.34-.17-.69s-.64-.36-.85-.23l-.31.18Zm.46.07,0,0c.13-.08.24,0,.45.15s.2.28.11.34l-.05,0-.56-.49Zm.49-.65,1.22.83.23-.14-.55-.58h0l.7.5.22-.13-.86-1-.22.13.56.62h0l-.72-.53-.2.12.56.61h0L22,38.59l-.22.13Zm3.44-1.12.11-.06c.11.1.13.18.08.22s-.27,0-.4-.15-.27-.32-.19-.36a.17.17,0,0,1,.2,0l.23-.14a.64.64,0,0,0-.67-.13c-.25.15-.11.45.21.73s.63.41.85.28,0-.28.21-.15l.13-.08-.61-.55-.33.2.18.16ZM20.83,38l.51.13-.44.26L20.83,38Zm3.25-1.83a.53.53,0,0,0-.3-.14.44.44,0,0,0-.3.06.22.22,0,0,0-.13.19.3.3,0,0,0,.13.24.6.6,0,0,0,.3.14.46.46,0,0,0,.29,0,.23.23,0,0,0,.13-.2.31.31,0,0,0-.12-.24Zm.06,0a.43.43,0,0,1,.15.28.3.3,0,0,1-.16.24.53.53,0,0,1-.36.06.6.6,0,0,1-.35-.16.4.4,0,0,1-.15-.29.29.29,0,0,1,.15-.24.53.53,0,0,1,.36-.06.67.67,0,0,1,.36.17Zm-.32.45-.36-.32.15-.09.1-.05h.08l.07,0a.09.09,0,0,1,0,.08.07.07,0,0,1,0,.06h.07l.1,0,.12,0-.09.06-.13,0-.09,0h0l0,0h0l.15.13-.07,0Zm-.14-.23.06,0s.06,0,.06,0,0,0,0,0l0,0,0,0h0l-.05,0-.07,0,.09.08Z"/><path d="M23.14,53.58l-.8-.72.46-.27.14.12-.33.19.19.18.29-.17.13.12-.28.17.34.3-.14.08Zm.88-.51-.13.07-.58-.52a.36.36,0,0,1,0,.21l-.14-.13a.4.4,0,0,0,0-.13.33.33,0,0,0-.05-.16l.1-.07.81.73Z"/><path d="M28.41,58.37l-.8-.71.46-.28.13.13-.32.19.19.17.28-.17.14.13L28.2,58l.35.31-.14.07Zm.84-.7.15.13-.46.27a1,1,0,0,1-.11-.17,1.08,1.08,0,0,1,0-.26.54.54,0,0,0,0-.17.16.16,0,0,0-.07-.11.21.21,0,0,0-.1-.06.13.13,0,0,0-.09,0c-.06,0-.05.08,0,.17l-.14.06a.37.37,0,0,1-.11-.2.17.17,0,0,1,.1-.15.28.28,0,0,1,.22,0,.53.53,0,0,1,.21.11l.08.09a.16.16,0,0,1,.05.11.57.57,0,0,1,0,.16c0,.07,0,.11,0,.13a.08.08,0,0,0,0,0l.25-.15Z"/><path d="M33.72,63.14l-.8-.72.46-.27.13.11-.32.2.19.17.28-.16.14.12-.28.16.34.31-.14.08Zm.33-.52.11-.09a.25.25,0,0,0,.12.07h.09a.06.06,0,0,0,0-.08.22.22,0,0,0-.07-.1.23.23,0,0,0-.12-.06s-.07,0-.09,0l0,0L34,62.28s.06,0,.06-.07a.1.1,0,0,0,0-.08.11.11,0,0,0-.09-.05H33.8a0,0,0,0,0,0,.06s0,0,0,.09l-.15.05a.3.3,0,0,1-.08-.19.14.14,0,0,1,.09-.12.25.25,0,0,1,.21,0,.39.39,0,0,1,.19.1.17.17,0,0,1,.07.1.14.14,0,0,1,0,.11.22.22,0,0,1,.16,0,.33.33,0,0,1,.16.09.39.39,0,0,1,.12.2.16.16,0,0,1-.09.16.3.3,0,0,1-.21,0,.42.42,0,0,1-.24-.12Z"/><path d="M37.89,70.38a.16.16,0,0,1-.13-.08.15.15,0,0,1,.06-.19l7.91-4.39a.13.13,0,0,1,.19,0,.14.14,0,0,1-.06.19L38,70.36Zm-3-2.82a.15.15,0,0,1-.12-.07.15.15,0,0,1,.06-.2l7.9-4.39a.14.14,0,0,1,.19.05.14.14,0,0,1-.05.19L35,67.54Zm-2.2-2.07a.16.16,0,0,1-.13-.08.15.15,0,0,1,.06-.19l7.9-4.39a.14.14,0,0,1,.19.05.16.16,0,0,1-.05.2l-7.91,4.39Zm-3-2.81a.14.14,0,0,1-.12-.07.13.13,0,0,1,.05-.19L37.53,58a.14.14,0,0,1,.19.05.16.16,0,0,1,0,.2l-7.91,4.4Zm-2.21-2.07a.13.13,0,0,1-.12-.08.14.14,0,0,1,.05-.19l7.91-4.4a.14.14,0,0,1,.14.25l-7.91,4.4Zm-3-2.83a.14.14,0,0,1-.07-.26l7.9-4.39a.14.14,0,0,1,.19,0,.13.13,0,0,1,0,.19l-7.91,4.4Zm-2.21-2.06a.14.14,0,0,1-.06-.27l7.9-4.39a.13.13,0,0,1,.19,0,.14.14,0,0,1,0,.19l-7.91,4.4Zm-3-2.82a.13.13,0,0,1-.12-.07.14.14,0,0,1,.06-.19l7.9-4.4a.13.13,0,0,1,.19,0,.13.13,0,0,1,0,.19l-7.91,4.41Z"/><path d="M37.86,68.19,38,68.1c.11.08.2.1.27.05s.07-.05.07-.07a.1.1,0,0,0,0-.09s0,0-.06,0h-.06L38,68l-.17,0-.13,0a.5.5,0,0,1-.12-.08.38.38,0,0,1-.08-.11.14.14,0,0,1,0-.11.13.13,0,0,1,.09-.09.32.32,0,0,1,.23,0,.37.37,0,0,1,.23.1l-.12.09a.34.34,0,0,0-.12-.06l-.1,0s0,0,0,.08a0,0,0,0,0,0,0,.09.09,0,0,0,.07,0,.38.38,0,0,0,.17,0,.45.45,0,0,1,.18,0,.37.37,0,0,1,.15,0,.28.28,0,0,1,.13.09.24.24,0,0,1,.1.18c0,.06,0,.12-.13.17a.43.43,0,0,1-.5-.08Z"/><polygon points="38.71 68.04 37.97 67.38 38.43 67.11 38.55 67.23 38.22 67.42 38.39 67.57 38.7 67.39 38.82 67.5 38.51 67.68 38.71 67.86 39.05 67.66 39.18 67.77 38.71 68.04 38.71 68.04"/><polygon points="39.42 67.63 38.81 67.08 38.63 67.19 38.5 67.07 38.99 66.78 39.12 66.9 38.94 67 39.55 67.56 39.42 67.63 39.42 67.63"/><path d="M39.07,66.74l.12-.08.4.36.14.11.11.05a.23.23,0,0,0,.11,0,.13.13,0,0,0,0-.06A.11.11,0,0,0,40,67a.73.73,0,0,0-.13-.13l-.41-.37.13-.07.38.34a1.17,1.17,0,0,1,.2.21.23.23,0,0,1,0,.14.24.24,0,0,1-.11.12.38.38,0,0,1-.19.06.58.58,0,0,1-.18,0,1.69,1.69,0,0,1-.24-.19l-.4-.35Z"/><path d="M40.43,67l-.73-.66.2-.12.15-.07a.25.25,0,0,1,.17,0,.44.44,0,0,1,.18.11.35.35,0,0,1,.1.13.16.16,0,0,1,0,.12.35.35,0,0,1-.14.11l-.08,0,.28.25-.13.07ZM40,66.41l.21.19.06,0a.25.25,0,0,0,.09-.07.07.07,0,0,0,0,0,.18.18,0,0,0,0-.07.2.2,0,0,0-.08,0h-.07l-.11.05-.06,0Z"/><path d="M11.17,63.77A1.29,1.29,0,0,1,10.11,63,1.45,1.45,0,0,1,10,61.92a.82.82,0,0,1,.38-.47.78.78,0,0,1,.6,0,1.42,1.42,0,0,1,.8.73h0a1.12,1.12,0,0,1-.24,1.54A.68.68,0,0,1,11.17,63.77Zm-.48-1.92a.27.27,0,0,0-.12,0,.32.32,0,0,0-.14.19.93.93,0,0,0,.1.71c.21.41.57.59.76.49s.25-.49,0-.9h0a1.08,1.08,0,0,0-.52-.5Z"/></svg>